<svg viewBox="0 0 44 46" fill="none" xmlns="http://www.w3.org/2000/svg">
<rect width="44" height="46" fill="#005E83"/>
<path fill-rule="evenodd" clip-rule="evenodd" d="M24.293 18.293C24.4805 18.1056 24.7348 18.0002 25 18.0002C25.2652 18.0002 25.5195 18.1056 25.707 18.293L29.707 22.293C29.8945 22.4806 29.9998 22.7349 29.9998 23C29.9998 23.2652 29.8945 23.5195 29.707 23.707L25.707 27.707C25.5184 27.8892 25.2658 27.99 25.0036 27.9877C24.7414 27.9854 24.4906 27.8803 24.3052 27.6948C24.1198 27.5094 24.0146 27.2586 24.0123 26.9964C24.01 26.7342 24.1108 26.4816 24.293 26.293L26.586 24H15C14.7348 24 14.4804 23.8947 14.2929 23.7071C14.1054 23.5196 14 23.2652 14 23C14 22.7348 14.1054 22.4805 14.2929 22.2929C14.4804 22.1054 14.7348 22 15 22H26.586L24.293 19.707C24.1055 19.5195 24.0002 19.2652 24.0002 19C24.0002 18.7349 24.1055 18.4806 24.293 18.293V18.293Z" fill="white"/>
</svg>
