<svg viewBox="0 0 56 56" fill="none" xmlns="http://www.w3.org/2000/svg">
<rect width="56" height="56" rx="28" fill="#FAA635"/>
<path d="M28 30.6667L40 24L28 17.3334L16 24L28 30.6667Z" stroke="white" stroke-width="2"/>
<path d="M27.9998 30.6667L36.2131 26.104C37.2938 28.8481 37.6005 31.8362 37.0998 34.7427C33.7179 35.0709 30.5294 36.4715 27.9998 38.74C25.4705 36.4718 22.2826 35.0712 18.9011 34.7427C18.4 31.8362 18.7068 28.848 19.7878 26.104L27.9998 30.6667Z" stroke="white" stroke-width="2"/>
<path d="M22.6667 38.6667V28.6667L28 25.704M28 30.6667L40 24L28 17.3334L16 24L28 30.6667ZM28 30.6667L36.2133 26.104C37.294 28.8482 37.6007 31.8363 37.1 34.7427C33.7181 35.0709 30.5296 36.4715 28 38.74C25.4707 36.4718 22.2828 35.0712 18.9013 34.7427C18.4003 31.8363 18.707 28.8481 19.788 26.104L28 30.6667Z" stroke="white" stroke-width="2" stroke-linecap="round" stroke-linejoin="round"/>
</svg>
