<svg viewBox="0 0 17 10" fill="none" xmlns="http://www.w3.org/2000/svg">
<path fill-rule="evenodd" clip-rule="evenodd" d="M16.0315 9.3313C15.7315 9.63125 15.3246 9.79976 14.9003 9.79976C14.4761 9.79976 14.0692 9.63125 13.7691 9.3313L8.50034 4.0625L3.23154 9.3313C2.92978 9.62275 2.52561 9.78402 2.1061 9.78038C1.68659 9.77673 1.28529 9.60846 0.988632 9.31181C0.69198 9.01516 0.523709 8.61385 0.520063 8.19434C0.516419 7.77482 0.677689 7.37066 0.969142 7.0689L7.36914 0.668898C7.66919 0.368944 8.07608 0.20044 8.50034 0.20044C8.9246 0.20044 9.3315 0.368944 9.63154 0.668898L16.0315 7.0689C16.3315 7.36894 16.5 7.77584 16.5 8.2001C16.5 8.62436 16.3315 9.03125 16.0315 9.3313Z" fill="currentColor"/>
</svg>
