<svg viewBox="0 0 512 512" fill="none" xmlns="http://www.w3.org/2000/svg">
<path fill-rule="evenodd" clip-rule="evenodd" d="M256 469.333C244.218 469.333 234.667 459.782 234.667 448L234.667 64C234.667 52.218 244.218 42.6667 256 42.6667C267.782 42.6667 277.333 52.218 277.333 64L277.333 448C277.333 459.782 267.782 469.333 256 469.333Z" fill="#FAA635"/>
<path fill-rule="evenodd" clip-rule="evenodd" d="M91.5818 283.582C99.9129 275.251 113.42 275.251 121.752 283.582L256 417.83L390.248 283.582C398.58 275.251 412.087 275.251 420.418 283.582C428.75 291.913 428.75 305.42 420.418 313.752L271.085 463.085C262.754 471.416 249.246 471.416 240.915 463.085L91.5818 313.752C83.2506 305.42 83.2506 291.913 91.5818 283.582Z" fill="#FAA635"/>
</svg>
