<svg viewBox="0 0 56 56" fill="none" xmlns="http://www.w3.org/2000/svg">
<rect width="56" height="56" rx="28" fill="#FAA635"/>
<path d="M24.884 34.6667H31.1147H24.884ZM28 16V17.3333V16ZM36.4853 19.5147L35.5427 20.4573L36.4853 19.5147ZM40 28H38.6667H40ZM17.3333 28H16H17.3333ZM20.4573 20.4573L19.5147 19.5147L20.4573 20.4573ZM23.2853 32.7147C22.3532 31.7822 21.7184 30.5944 21.4613 29.3012C21.2042 28.008 21.3363 26.6677 21.841 25.4496C22.3456 24.2315 23.2001 23.1905 24.2964 22.458C25.3927 21.7255 26.6815 21.3346 28 21.3346C29.3185 21.3346 30.6073 21.7255 31.7036 22.458C32.7999 23.1905 33.6544 24.2315 34.159 25.4496C34.6637 26.6677 34.7958 28.008 34.5387 29.3012C34.2816 30.5944 33.6468 31.7822 32.7147 32.7147L31.984 33.444C31.5663 33.8618 31.2349 34.3578 31.0089 34.9036C30.7829 35.4495 30.6666 36.0345 30.6667 36.6253V37.3333C30.6667 38.0406 30.3857 38.7189 29.8856 39.219C29.3855 39.719 28.7072 40 28 40C27.2928 40 26.6145 39.719 26.1144 39.219C25.6143 38.7189 25.3333 38.0406 25.3333 37.3333V36.6253C25.3333 35.432 24.8587 34.2867 24.016 33.444L23.2853 32.7147Z" stroke="white" stroke-width="2" stroke-linecap="round" stroke-linejoin="round"/>
</svg>
