<svg viewBox="0 0 16 10" fill="none" xmlns="http://www.w3.org/2000/svg">
<path fill-rule="evenodd" clip-rule="evenodd" d="M0.468459 0.668946C0.768503 0.368993 1.1754 0.200488 1.59966 0.200488C2.02392 0.200488 2.43081 0.368993 2.73086 0.668946L7.99966 5.93775L13.2685 0.668946C13.5702 0.377494 13.9744 0.216223 14.3939 0.219869C14.8134 0.223514 15.2147 0.391784 15.5114 0.688437C15.808 0.985089 15.9763 1.38639 15.9799 1.80591C15.9836 2.22542 15.8223 2.62958 15.5309 2.93135L9.13086 9.33135C8.83081 9.6313 8.42392 9.7998 7.99966 9.7998C7.5754 9.7998 7.1685 9.6313 6.86846 9.33135L0.468459 2.93135C0.168505 2.6313 9.03357e-08 2.22441 9.5395e-08 1.80015C1.00454e-07 1.37588 0.168505 0.968991 0.468459 0.668946Z" fill="#2A9FBC"/>
</svg>
