<svg viewBox="0 0 488 83" fill="none" xmlns="http://www.w3.org/2000/svg">
<g clip-path="url(#clip0_121_1317)">
<path d="M255.6 17.8H274.5V23.5H262.2V27.5H273.4V33H262.2V41.4001H255.6V17.8Z" fill="#5C585B"/>
<path d="M277.5 31V17.8H284.2V31C284.2 34.4 285.9 36 288.6 36C291.3 36 293 34.4 293 31.1V17.8H299.7V30.9C299.7 38.5 295.3 41.9001 288.6 41.9001C281.8 41.9001 277.5 38.5 277.5 31Z" fill="#5C585B"/>
<path d="M303.1 17.8H309.3L319 30.3V17.8H325.5V41.4001H319.7L309.6 28.4V41.4001H303.1V17.8Z" fill="#5C585B"/>
<path d="M338.6 35.6C342.5 35.6 345.1 33.4 345.1 29.6V29.5C345.1 25.7 342.5 23.5 338.6 23.5H335.9V35.5H338.6V35.6ZM329.3 17.8H338.4C346.9 17.8 351.8 22.7 351.8 29.5V29.6C351.8 36.4001 346.8 41.5 338.3 41.5H329.3V17.8Z" fill="#5C585B"/>
<path d="M366.4 32.1L363.8 25.4L361.1 32.1H366.4ZM360.7 17.6H367L377.1 41.4H370.1L368.4 37.2H359.3L357.6 41.4H350.7L360.7 17.6Z" fill="#5C585B"/>
<path d="M382.7 45.0999L385.3 41.5C380 40.2 376.2 35.6 376.2 29.6V29.5C376.2 22.6 381.5 17.2 388.7 17.2C393.5 17.2 396.6 19.2 398.7 22.1L393.8 25.9C392.4 24.1999 390.9 23.1 388.6 23.1C385.3 23.1 383 25.9 383 29.4V29.5C383 33.1 385.3 35.7999 388.6 35.7999C391.1 35.7999 392.5 34.7 393.9 32.9L398.8 36.4C396.8 39.2 394.1 41.3 389.6 41.7L387.7 47.0999L382.7 45.0999Z" fill="#5C585B"/>
<path d="M414.9 32.1L412.3 25.4L409.6 32.1H414.9ZM405.2 15.6C405.9 12.3 407.1 10.6 409.4 10.6C411.4 10.6 413.6 11.9 414.7 11.9C415.6 11.9 416 11.4 416.4 10.3L419.5 11.1C418.8 14.4 417.6 16.1 415.3 16.1C413.3 16.1 411.1 14.8 410 14.8C409 14.8 408.7 15.3 408.3 16.4L405.2 15.6ZM409.2 17.6H415.5L425.6 41.4001H418.6L416.9 37.2001H407.8L406.1 41.4001H399.2L409.2 17.6Z" fill="#5C585B"/>
<path d="M443.1 29.7001C443.1 26.2001 440.6 23.2001 437 23.2001C433.4 23.2001 431 26.1 431 29.5V29.6C431 33.0001 433.5 36 437.1 36C440.7 36 443.1 33.1001 443.1 29.7001ZM424.3 29.7001C424.3 22.8001 429.8 17.3 437.1 17.3C444.4 17.3 449.8 22.7 449.8 29.5V29.6C449.8 36.4001 444.3 41.9001 437 41.9001C429.7 41.9001 424.3 36.5001 424.3 29.7001Z" fill="#5C585B"/>
<path d="M264.8 76.1C268.7 76.1 271.3 73.9 271.3 70.1V70C271.3 66.2 268.7 64 264.8 64H262.1V76H264.8V76.1ZM255.6 58.3H264.7C273.2 58.3 278.1 63.2 278.1 70C278.1 76.8 273.1 81.9001 264.6 81.9001H255.6V58.3V58.3Z" fill="#5C585B"/>
<path d="M299.1 70.2C299.1 66.7 296.6 63.7001 293 63.7001C289.4 63.7001 287 66.6 287 70V70.1C287 73.5 289.5 76.5 293.1 76.5C296.7 76.5 299.1 73.6 299.1 70.2ZM280.3 70.2C280.3 63.3 285.8 57.8 293.1 57.8C300.4 57.8 305.8 63.2 305.8 70V70.1C305.8 76.9 300.3 82.4001 293 82.4001C285.7 82.4001 280.3 77 280.3 70.2Z" fill="#5C585B"/>
<path d="M326.4 58.3L320.8 67.4001L315.1 58.3H308.2V81.9001H314.6V68.4001L320.6 77.6H320.8L326.8 68.3001V81.9001H333.4V58.3H326.4Z" fill="#5C585B"/>
<path d="M345.4 70.2C345.4 63.2 350.7 57.8 357.9 57.8C362.7 57.8 365.8 59.8001 367.9 62.7001L363 66.5C361.6 64.8 360.1 63.7001 357.8 63.7001C354.5 63.7001 352.2 66.5 352.2 70V70.1C352.2 73.6 354.5 76.4001 357.8 76.4001C360.3 76.4001 361.7 75.3 363.1 73.5L368 77C365.8 80.1 362.8 82.3001 357.5 82.3001C350.9 82.4001 345.4 77.2 345.4 70.2Z" fill="#5C585B"/>
<path d="M381 65.9L383.6 72.6H378.3L381 65.9ZM377.9 58.1L367.8 81.9H374.7L376.4 77.7H385.5L387.2 81.9H394.2L384.1 58.1H377.9V58.1Z" fill="#5C585B"/>
<path d="M407.7 76.7C409.7 76.7 410.8 75.9 410.8 74.5V74.4001C410.8 73.1001 409.8 72.3001 407.6 72.3001H402.6V76.7H407.7V76.7ZM406.7 67.7C408.7 67.7 409.8 67 409.8 65.6V65.5C409.8 64.2 408.8 63.5 406.8 63.5H402.5V67.7H406.7V67.7ZM396.2 58.3H408.3C411.3 58.3 413.4 59.0001 414.8 60.4001C415.7 61.3001 416.3 62.6 416.3 64.2V64.3001C416.3 67.0001 414.7 68.7 412.7 69.6C415.6 70.5 417.4 72.2001 417.4 75.4001V75.5C417.4 79.6 414.1 82 408.4 82H396.2V58.3Z" fill="#5C585B"/>
<path d="M430.9 69.6C433.1 69.6 434.4 68.5001 434.4 66.8001V66.7C434.4 64.8 433 63.9001 430.8 63.9001H426.5V69.6H430.9V69.6ZM420 58.3H431.2C434.8 58.3 437.3 59.2001 438.9 60.9001C440.3 62.3001 441 64.1001 441 66.4001V66.5C441 70.1 439.1 72.5001 436.1 73.8001L441.7 82.1H434.1L429.3 74.9001H429.2H426.4V82.1H420V58.3Z" fill="#5C585B"/>
<path d="M454.9 65.9L457.5 72.6H452.2L454.9 65.9ZM451.8 58.1L441.7 81.9H448.6L450.3 77.7H459.4L461.1 81.9H468.1L458 58.1H451.8V58.1Z" fill="#5C585B"/>
<path d="M469.8 58.3V81.9001H487.8V76.2H476.4V58.3H469.8Z" fill="#5C585B"/>
<path d="M106.3 58.5H117.2C128.4 58.5 135.1 51.9 135.1 40.9C135.1 29.9 128.4 23.3 117.2 23.3H106.3V58.5V58.5ZM117.3 81.9H82.8999V0H117.2C141.1 0 158.5 17.2 158.5 41C158.6 64.7 141.2 81.9 117.3 81.9Z" fill="#005E83"/>
<path d="M75 0H0V23H75V0Z" fill="#2A9FBC"/>
<path d="M50.5 29.4H0V52.4H50.5V29.4Z" fill="#2A9FBC"/>
<path d="M25.2 58.9H0V81.9H25.2V58.9Z" fill="#2A9FBC"/>
<path d="M207.4 81.9C184.8 81.9 166.5 63.5 166.5 41C166.5 18.4 184.9 0.0999756 207.4 0.0999756C218.2 0.0999756 228.4 4.29997 236.1 11.9L219.7 28.6C216.4 25.4 212 23.6 207.4 23.6C197.7 23.6 189.9 31.5 189.9 41.1C189.9 50.8 197.8 58.6 207.4 58.6C212.1 58.6 216.5 56.8 219.8 53.5L236.4 70.1C228.6 77.6 218.3 81.9 207.4 81.9Z" fill="#005E83"/>
</g>
<defs>
<clipPath id="clip0_121_1317">
<rect width="487.8" height="82.4" fill="white"/>
</clipPath>
</defs>
</svg>
