<svg viewBox="0 0 20 20" fill="none" xmlns="http://www.w3.org/2000/svg">
<path fill-rule="evenodd" clip-rule="evenodd" d="M0.868788 0.868833C1.16883 0.568879 1.57573 0.400374 1.99999 0.400374C2.42425 0.400374 2.83114 0.568879 3.13119 0.868833L9.99999 7.73763L16.8688 0.868833C17.0164 0.716016 17.1929 0.594124 17.3881 0.51027C17.5833 0.426416 17.7933 0.382278 18.0057 0.380432C18.2182 0.378585 18.4289 0.419068 18.6255 0.499517C18.8221 0.579967 19.0008 0.698772 19.151 0.849C19.3012 0.999228 19.4201 1.17787 19.5005 1.37451C19.581 1.57114 19.6214 1.78183 19.6196 1.99427C19.6177 2.20672 19.5736 2.41667 19.4898 2.61188C19.4059 2.80709 19.284 2.98364 19.1312 3.13123L12.2624 10L19.1312 16.8688C19.4226 17.1706 19.5839 17.5748 19.5803 17.9943C19.5766 18.4138 19.4083 18.8151 19.1117 19.1117C18.815 19.4084 18.4137 19.5767 17.9942 19.5803C17.5747 19.584 17.1706 19.4227 16.8688 19.1312L9.99999 12.2624L3.13119 19.1312C2.82942 19.4227 2.42526 19.584 2.00575 19.5803C1.58623 19.5767 1.18493 19.4084 0.888278 19.1117C0.591625 18.8151 0.423354 18.4138 0.419709 17.9943C0.416064 17.5748 0.577335 17.1706 0.868788 16.8688L7.73759 10L0.868788 3.13123C0.568834 2.83119 0.40033 2.42429 0.40033 2.00003C0.40033 1.57577 0.568834 1.16888 0.868788 0.868833Z" fill="#5C585B"/>
</svg>
