<svg viewBox="0 0 18 19" fill="none" xmlns="http://www.w3.org/2000/svg">
<path d="M1 2.00005V7.00005H1.582M16.938 9.00005C16.7168 7.24291 15.919 5.60881 14.6694 4.35383C13.4198 3.09884 11.7891 2.29392 10.033 2.06519C8.2768 1.83646 6.49438 2.19686 4.96503 3.08991C3.43568 3.98296 2.24585 5.35818 1.582 7.00005M1.582 7.00005H6M17 18V13H16.419M16.419 13C15.7542 14.641 14.564 16.0151 13.0348 16.9073C11.5056 17.7996 9.72374 18.1596 7.9681 17.9309C6.21246 17.7023 4.5822 16.8979 3.33253 15.6438C2.08287 14.3896 1.28435 12.7565 1.062 11M16.419 13H12" stroke="white" stroke-width="2" stroke-linecap="round" stroke-linejoin="round"/>
</svg>
