<svg viewBox="0 0 56 56" fill="none" xmlns="http://www.w3.org/2000/svg">
<rect width="56" height="56" rx="28" fill="#FAA635"/>
<path d="M34.667 38.6666H41.3337V35.9999C41.3336 35.1686 41.0745 34.358 40.5925 33.6808C40.1105 33.0035 39.4294 32.4932 38.644 32.2209C37.8586 31.9486 37.0078 31.9278 36.21 32.1613C35.4122 32.3948 34.707 32.8711 34.1923 33.5239M34.667 38.6666H21.3337M34.667 38.6666V35.9999C34.667 35.1253 34.499 34.2893 34.1923 33.5239M34.1923 33.5239C33.6972 32.2865 32.8427 31.2259 31.739 30.4787C30.6353 29.7316 29.3331 29.3323 28.0003 29.3323C26.6675 29.3323 25.3653 29.7316 24.2617 30.4787C23.158 31.2259 22.3035 32.2865 21.8083 33.5239M21.3337 38.6666H14.667V35.9999C14.6671 35.1686 14.9261 34.358 15.4081 33.6808C15.8902 33.0035 16.5712 32.4932 17.3567 32.2209C18.1421 31.9486 18.9928 31.9278 19.7906 32.1613C20.5885 32.3948 21.2937 32.8711 21.8083 33.5239M21.3337 38.6666V35.9999C21.3337 35.1253 21.5017 34.2893 21.8083 33.5239M32.0003 21.3333C32.0003 22.3941 31.5789 23.4115 30.8288 24.1617C30.0786 24.9118 29.0612 25.3333 28.0003 25.3333C26.9395 25.3333 25.922 24.9118 25.1719 24.1617C24.4218 23.4115 24.0003 22.3941 24.0003 21.3333C24.0003 20.2724 24.4218 19.255 25.1719 18.5048C25.922 17.7547 26.9395 17.3333 28.0003 17.3333C29.0612 17.3333 30.0786 17.7547 30.8288 18.5048C31.5789 19.255 32.0003 20.2724 32.0003 21.3333ZM21.3337 25.3333C21.3337 26.0405 21.0527 26.7188 20.5526 27.2189C20.0525 27.719 19.3742 27.9999 18.667 27.9999C17.9597 27.9999 17.2815 27.719 16.7814 27.2189C16.2813 26.7188 16.0003 26.0405 16.0003 25.3333C16.0003 24.626 16.2813 23.9477 16.7814 23.4476C17.2815 22.9475 17.9597 22.6666 18.667 22.6666C19.3742 22.6666 20.0525 22.9475 20.5526 23.4476C21.0527 23.9477 21.3337 24.626 21.3337 25.3333Z" stroke="white" stroke-width="2" stroke-linecap="round" stroke-linejoin="round"/>
<path d="M39.2193 27.219C39.7194 26.7189 40.0003 26.0407 40.0003 25.3334C40.0003 24.6262 39.7194 23.9479 39.2193 23.4478C38.7192 22.9477 38.0409 22.6667 37.3337 22.6667C36.6264 22.6667 35.9481 22.9477 35.448 23.4478C34.9479 23.9479 34.667 24.6262 34.667 25.3334C34.667 26.0407 34.9479 26.7189 35.448 27.219C35.9481 27.7191 36.6264 28.0001 37.3337 28.0001C38.0409 28.0001 38.7192 27.7191 39.2193 27.219Z" stroke="white" stroke-width="2" stroke-linecap="round" stroke-linejoin="round"/>
</svg>
