<svg viewBox="0 0 1815 634" fill="none" xmlns="http://www.w3.org/2000/svg">
<path d="M212.723 627.802V586.184H127.634V343.564H431.65V301.947H127.634V49.5866H443.173L444.059 146.103H485.717V7.96928H1.77269V48.7011H83.3165V586.184H0V627.802H212.723Z" fill="#686366"/>
<path d="M855.012 627.802C1072.17 627.802 1172.32 475.5 1170.55 310.802C1167.01 150.531 1065.96 7.96928 855.012 7.96928H568.722V48.7011H650.266V586.184H566.063V627.802H855.012ZM694.583 586.184V49.5866H855.012C1034.94 49.5866 1123.57 176.21 1125.35 310.802C1127.12 450.707 1039.37 586.184 855.012 586.184H694.583Z" fill="#686366"/>
<path d="M1589.87 0C1377.15 0 1270.78 155.844 1271.67 320.542C1271.67 488.782 1381.58 634 1589.87 634C1670.53 634 1753.84 603.894 1815 541.911L1783.09 512.69C1730.8 564.048 1659.89 590.612 1589.87 590.612C1419.69 590.612 1316.87 473.729 1316.87 320.542C1315.99 171.782 1408.17 42.5028 1589.87 42.5028C1646.59 42.5028 1703.32 58.4414 1751.18 93.8603L1752.07 200.117H1791.96C1792.84 157.615 1793.73 115.997 1793.73 74.3799C1735.23 23.9078 1662.55 0 1589.87 0Z" fill="#686366"/>
</svg>
