<svg viewBox="0 0 41 27" fill="none" xmlns="http://www.w3.org/2000/svg">
<path d="M30.208 26.496C28.5013 26.496 26.9867 26.048 25.664 25.152C24.3413 24.256 23.296 23.04 22.528 21.504C21.76 19.968 21.376 18.2613 21.376 16.384C21.376 13.312 22.3787 10.304 24.384 7.36C26.432 4.37334 29.312 1.92 33.024 0L40.192 3.84C37.76 5.03467 35.6907 6.42134 33.984 8C32.32 9.57867 31.1893 11.4347 30.592 13.568C32.5973 13.7387 34.2187 14.3573 35.456 15.424C36.736 16.448 37.376 17.8773 37.376 19.712C37.376 21.5467 36.7147 23.1467 35.392 24.512C34.112 25.8347 32.384 26.496 30.208 26.496ZM8.832 26.496C7.12533 26.496 5.61067 26.048 4.288 25.152C2.96533 24.256 1.92 23.04 1.152 21.504C0.384 19.968 0 18.2613 0 16.384C0 13.312 1.00267 10.304 3.008 7.36C5.056 4.37334 7.936 1.92 11.648 0L18.816 3.84C16.384 5.03467 14.3147 6.42134 12.608 8C10.944 9.57867 9.81333 11.4347 9.216 13.568C11.2213 13.7387 12.8427 14.3573 14.08 15.424C15.36 16.448 16 17.8773 16 19.712C16 21.5467 15.3387 23.1467 14.016 24.512C12.736 25.8347 11.008 26.496 8.832 26.496Z" fill="#E4E2E2"/>
</svg>
