<svg viewBox="0 0 102 25" fill="none" xmlns="http://www.w3.org/2000/svg">
<path d="M6.88654 5.89354C6.33837 6.46388 5.61525 6.7134 4.93879 6.7134C3.59752 6.70152 2.72278 5.76283 2.72278 4.37262C2.72278 3.05371 3.52754 2.03184 4.96212 2.03184C5.23037 2.03184 5.51029 2.05561 5.80187 2.16255L5.86018 3.49335H7.8196V1.09316C7.07315 0.344582 6.00014 0 4.96212 0C1.89469 0 0.413468 2.23384 0.436795 4.37262C0.448458 7.16492 2.31457 8.75713 4.93879 8.74525C6.2334 8.73337 7.31808 8.35314 8.23947 7.43821L6.88654 5.89354Z" fill="#5C585B"/>
<path d="M17.6887 4.37262C17.6887 1.61597 15.8459 0.0237647 13.1633 0.0237647C10.4925 0.0237647 8.62636 1.65162 8.62636 4.37262C8.62636 7.16492 10.4925 8.73337 13.1633 8.73337C15.8459 8.73337 17.6887 7.16492 17.6887 4.37262ZM15.3794 4.37262C15.3794 5.76283 14.5163 6.72529 13.1633 6.72529C11.8571 6.72529 10.9357 5.76283 10.9357 4.37262C10.9357 3.00618 11.8454 2.03184 13.1633 2.03184C14.5163 2.03184 15.3794 2.93489 15.3794 4.37262Z" fill="#5C585B"/>
<path d="M19.3368 6.67776H18.3571V8.53137C19.7684 8.53137 21.1563 8.53137 22.5442 8.53137V6.86787L21.6345 6.79658V5.84601H22.5325L23.5472 7.33127V8.53137C24.6436 8.53137 25.7399 8.53137 26.8363 8.53137V6.67776H25.7749L24.9118 5.51331C26.1715 4.90732 26.498 4.06369 26.498 3.07747C26.498 1.58032 25.4133 0.213878 23.3256 0.213878H18.3571V2.05561H19.3368V6.67776ZM23.314 2.09125C23.9321 2.09125 24.212 2.55466 24.212 3.08935C24.212 3.62405 23.9088 4.08745 23.3373 4.08745H21.6345V2.09125H23.314Z" fill="#5C585B"/>
<path d="M27.6512 0.213878V2.07937H28.6193V6.67776H27.6512V8.53137C29.0625 8.53137 30.5787 8.53137 31.9783 8.53137V6.73717L30.9402 6.67776C30.9402 6.40447 30.9402 6.1193 30.9402 5.83413H32.4215C34.0776 5.82224 35.6872 4.97861 35.6872 3.02994C35.6872 1.06939 34.3226 0.213878 32.4215 0.213878H27.6512ZM30.9402 2.24572H32.4215C32.9463 2.24572 33.3779 2.50713 33.3779 3.05371C33.3779 3.64781 32.9463 3.9211 32.4215 3.9211H30.9402V2.24572Z" fill="#5C585B"/>
<path d="M45.2521 4.37262C45.2521 1.61597 43.4093 0.0237647 40.7268 0.0237647C38.0559 0.0237647 36.1898 1.65162 36.1898 4.37262C36.1898 7.16492 38.0559 8.73337 40.7268 8.73337C43.4093 8.73337 45.2521 7.16492 45.2521 4.37262ZM42.9428 4.37262C42.9428 5.76283 42.0797 6.72529 40.7268 6.72529C39.4205 6.72529 38.4991 5.76283 38.4991 4.37262C38.4991 3.00618 39.4088 2.03184 40.7268 2.03184C42.0797 2.03184 42.9428 2.93489 42.9428 4.37262Z" fill="#5C585B"/>
<path d="M46.9002 6.67776H45.9205V8.53137C47.3318 8.53137 48.7197 8.53137 50.1076 8.53137V6.86787L49.1979 6.79658V5.84601H50.096L51.1107 7.33127V8.53137C52.207 8.53137 53.3033 8.53137 54.3997 8.53137V6.67776H53.3383L52.4752 5.51331C53.7349 4.90732 54.0614 4.06369 54.0614 3.07747C54.0614 1.58032 52.9768 0.213878 50.889 0.213878H45.9205V2.05561H46.9002V6.67776ZM50.8774 2.09125C51.4955 2.09125 51.7755 2.55466 51.7755 3.08935C51.7755 3.62405 51.4722 4.08745 50.9007 4.08745H49.1979V2.09125H50.8774Z" fill="#5C585B"/>
<path d="M64.9651 8.53137V6.67776H64.067L61.2328 0.213878C59.8566 0.213878 58.2821 0.213878 56.9175 0.213878V2.05561H57.8389L55.8095 6.67776H54.8997V8.53137H58.9935V6.85599L58.2237 6.79658L58.4803 6.05989H61.3728L61.6294 6.7847L60.9063 6.85599V8.53137H64.9651ZM59.1685 4.21816L59.9149 2.21008L60.6847 4.21816H59.1685Z" fill="#5C585B"/>
<path d="M64.401 0.213878V3.43394H66.3488L66.4188 2.21008H67.1652V6.67776H66.1972V8.53137H70.4542V6.67776H69.4979V2.21008H70.2326L70.3026 3.43394H72.2504V0.213878H64.401Z" fill="#5C585B"/>
<path d="M78.5806 6.54705H76.2479V5.28755H78.2074V3.4577H76.2479V2.17443H78.429L78.4756 3.00618H80.2251V0.213878C77.8341 0.213878 75.4548 0.213878 73.0639 0.213878V2.05561H73.962V6.67776H73.0639V8.53137C75.5015 8.53137 77.9508 8.53137 80.3767 8.53137V5.7153H78.6272L78.5806 6.54705Z" fill="#5C585B"/>
<path d="M1.59145 18.4173V23.0157H0.716711V24.8693H8.00621V21.5542H5.98848L5.89517 22.8731H3.91243V18.4173H4.88047V16.5518C3.46923 16.5518 2.04632 16.5518 0.658395 16.5518V18.4173H1.59145Z" fill="#5C585B"/>
<path d="M14.3191 22.885H11.9865V21.6255H13.9459V19.7956H11.9865V18.5124H14.1675L14.2141 19.3441H15.9636V16.5518C13.5727 16.5518 11.1934 16.5518 8.8024 16.5518V18.3935H9.70047V23.0157H8.8024V24.8693C11.24 24.8693 13.6893 24.8693 16.1152 24.8693V22.0532H14.3658L14.3191 22.885Z" fill="#5C585B"/>
<path d="M26.7863 24.8693V23.0157H25.8883L23.0541 16.5518C21.6778 16.5518 20.1033 16.5518 18.7387 16.5518V18.3935H19.6601L17.6307 23.0157H16.721V24.8693H20.8148V23.1939L20.045 23.1345L20.3016 22.3978H23.1941L23.4507 23.1226L22.7275 23.1939V24.8693H26.7863ZM20.9897 20.5561L21.7362 18.548L22.5059 20.5561H20.9897Z" fill="#5C585B"/>
<path d="M28.3006 23.0157H27.3209V24.8693C28.7322 24.8693 30.1201 24.8693 31.508 24.8693V23.2058L30.5983 23.1345V22.1839H31.4963L32.511 23.6692V24.8693C33.6074 24.8693 34.7037 24.8693 35.8001 24.8693V23.0157H34.7387L33.8756 21.8512C35.1353 21.2452 35.4618 20.4016 35.4618 19.4154C35.4618 17.9183 34.3772 16.5518 32.2894 16.5518H27.3209V18.3935H28.3006V23.0157ZM32.2778 18.4292C32.8959 18.4292 33.1758 18.8926 33.1758 19.4273C33.1758 19.962 32.8726 20.4254 32.3011 20.4254H30.5983V18.4292H32.2778Z" fill="#5C585B"/>
<path d="M39.5425 16.5518H36.615V18.4173H37.5831V23.0157H36.615V24.8693C37.9796 24.8693 39.3442 24.8693 40.7205 24.8693V23.0157H39.9274V22.1958L39.8924 20.3897L43.2864 24.8693H45.2575V18.4173H46.2022V16.5518C44.8609 16.5518 43.4846 16.5518 42.1317 16.5518V18.4173H42.9248V19.4035C42.9481 19.7243 42.9481 20.1046 42.9948 21.1027L39.5425 16.5518Z" fill="#5C585B"/>
<path d="M51.5969 22.3146C51.5969 21.6492 52.2733 21.5185 52.7982 21.5185H54.0461V22.077C54.0461 22.7424 53.4047 23.1107 52.7282 23.1107C52.145 23.1107 51.5969 22.885 51.5969 22.3146ZM56.1572 18.952C56.1572 17.039 54.641 16.3973 52.9964 16.3973C51.5502 16.3973 49.6025 16.9677 49.6025 18.9758C49.6025 19.451 49.8241 20.2828 50.5005 20.6274C49.7774 21.0433 49.3225 21.8156 49.3225 22.4453C49.3225 24.4534 50.8854 25 52.4483 25C53.5679 25 54.3377 24.6554 54.9559 23.99C55.3407 24.9762 56.2621 25.0238 56.9969 24.8812V22.8256C56.4371 22.9206 56.1222 22.576 56.1222 22.1245V21.4829H56.9503V19.8194H52.9265C52.4833 19.8194 51.9468 19.5461 51.9468 18.9282C51.9468 17.9064 54.0345 17.8351 54.0578 18.952H56.1572Z" fill="#5C585B"/>
<path d="M61.2284 18.3935V23.0157H60.342V24.8693H64.7273C67.6548 24.8693 69.0194 22.9325 69.0194 20.6274C69.0194 18.346 67.6082 16.5518 64.7273 16.5518H60.342V18.3935H61.2284ZM63.526 18.5005H64.7273C66.1386 18.5005 66.7334 19.4748 66.7334 20.6036C66.7334 21.7443 66.2086 22.885 64.7273 22.885H63.526V18.5005Z" fill="#5C585B"/>
<path d="M70.6822 23.0157H69.7025V24.8693C71.1138 24.8693 72.5017 24.8693 73.8896 24.8693V23.2058L72.9799 23.1345V22.1839H73.8779L74.8926 23.6692V24.8693C75.989 24.8693 77.0853 24.8693 78.1817 24.8693V23.0157H77.1203L76.2572 21.8512C77.5169 21.2452 77.8434 20.4016 77.8434 19.4154C77.8434 17.9183 76.7588 16.5518 74.671 16.5518H69.7025V18.3935H70.6822V23.0157ZM74.6594 18.4292C75.2775 18.4292 75.5574 18.8926 75.5574 19.4273C75.5574 19.962 75.2542 20.4254 74.6827 20.4254H72.9799V18.4292H74.6594Z" fill="#5C585B"/>
<path d="M79.988 18.3935C79.988 19.9382 79.988 21.4591 79.988 23.0157H79.0316V24.8693C80.4429 24.8693 81.8541 24.8693 83.277 24.8693V23.0157H82.309C82.309 21.4591 82.309 19.9382 82.309 18.3935H83.277V16.5518C81.8541 16.5518 80.4429 16.5518 79.0316 16.5518V18.3935H79.988Z" fill="#5C585B"/>
<path d="M88.0609 16.5518H83.8738V18.3935H84.7253L87.5594 24.9049H89.7871L92.6212 18.3935H93.4727V16.5518H89.2972V18.3935H90.0903L88.6674 22.0889L87.2678 18.3935H88.0609V16.5518Z" fill="#5C585B"/>
<path d="M99.6404 22.885H97.3077V21.6255H99.2672V19.7956H97.3077V18.5124H99.4888L99.5354 19.3441H101.285V16.5518C98.894 16.5518 96.5147 16.5518 94.1237 16.5518V18.3935H95.0218V23.0157H94.1237V24.8693C96.5613 24.8693 99.0106 24.8693 101.437 24.8693V22.0532H99.687L99.6404 22.885Z" fill="#5C585B"/>
</svg>
