<svg viewBox="0 0 67 24" fill="none" xmlns="http://www.w3.org/2000/svg">
<path d="M30.0596 16.9675H33.1464C36.3082 16.9675 38.1963 15.1093 38.1963 12.0075C38.1963 8.90564 36.3082 7.04752 33.1464 7.04752H30.0596V16.9675ZM33.1464 23.5758H23.4363V0.424233H33.1464C39.9046 0.424233 44.8196 5.2943 44.8196 12.0075C44.8196 18.7057 39.9046 23.5758 33.1464 23.5758Z" fill="#005E83"/>
<path d="M21.2035 0.424194H0V6.9276H21.2035V0.424194Z" fill="#2A9FBC"/>
<path d="M14.2655 8.74078H0V15.2442H14.2655V8.74078Z" fill="#2A9FBC"/>
<path d="M7.13277 17.0723H0V23.5758H7.13277V17.0723Z" fill="#2A9FBC"/>
<path d="M58.6206 23.5608C52.2371 23.5608 47.0523 18.376 47.0523 11.9925C47.0523 5.60898 52.2371 0.424233 58.6206 0.424233C61.6775 0.424233 64.5546 1.60803 66.7424 3.75086L62.0971 8.47108C61.168 7.557 59.9243 7.04752 58.6206 7.04752C55.8934 7.04752 53.6756 9.26527 53.6756 11.9925C53.6756 14.7197 55.8934 16.9375 58.6206 16.9375C59.9393 16.9375 61.183 16.428 62.1271 15.484L66.8023 20.1592C64.6145 22.362 61.7075 23.5608 58.6206 23.5608Z" fill="#005E83"/>
</svg>
