<svg viewBox="0 0 180 32" fill="none" xmlns="http://www.w3.org/2000/svg">
<path d="M30.0596 20.9674H33.1464C36.3082 20.9674 38.1963 19.1093 38.1963 16.0075C38.1963 12.9056 36.3082 11.0475 33.1464 11.0475H30.0596V20.9674ZM33.1464 27.5757H23.4363V4.42419H33.1464C39.9046 4.42419 44.8196 9.29426 44.8196 16.0075C44.8196 22.7057 39.9046 27.5757 33.1464 27.5757Z" fill="#005E83"/>
<path d="M21.2035 4.42419H0V10.9276H21.2035V4.42419Z" fill="#2A9FBC"/>
<path d="M14.2655 12.7407H0V19.2441H14.2655V12.7407Z" fill="#2A9FBC"/>
<path d="M7.13277 21.0724H0V27.5758H7.13277V21.0724Z" fill="#2A9FBC"/>
<path d="M58.6206 27.5607C52.2371 27.5607 47.0523 22.376 47.0523 15.9925C47.0523 9.60894 52.2371 4.42419 58.6206 4.42419C61.6775 4.42419 64.5546 5.60799 66.7424 7.75082L62.0971 12.471C61.168 11.557 59.9243 11.0475 58.6206 11.0475C55.8934 11.0475 53.6756 13.2652 53.6756 15.9925C53.6756 18.7197 55.8934 20.9375 58.6206 20.9375C59.9393 20.9375 61.183 20.428 62.1271 19.4839L66.8023 24.1592C64.6145 26.362 61.7075 27.5607 58.6206 27.5607Z" fill="#005E83"/>
<path d="M85.092 7.43018C84.5479 7.98582 83.8302 8.22891 83.1589 8.22891C81.8276 8.21733 80.9595 7.30285 80.9595 5.94848C80.9595 4.66357 81.7582 3.66806 83.182 3.66806C83.4482 3.66806 83.7261 3.69121 84.0155 3.79539L84.0733 5.09187H86.0181V2.75357C85.2772 2.0243 84.2122 1.6886 83.182 1.6886C80.1376 1.6886 78.6675 3.86484 78.6906 5.94848C78.7022 8.66879 80.5543 10.2199 83.1589 10.2084C84.4438 10.1968 85.5203 9.82636 86.4348 8.93503L85.092 7.43018ZM95.8132 5.94848C95.8132 3.2629 93.9842 1.71175 91.3218 1.71175C88.6709 1.71175 86.8188 3.29763 86.8188 5.94848C86.8188 8.66879 88.6709 10.1968 91.3218 10.1968C93.9842 10.1968 95.8132 8.66879 95.8132 5.94848ZM93.5212 5.94848C93.5212 7.30285 92.6645 8.24048 91.3218 8.24048C90.0253 8.24048 89.1108 7.30285 89.1108 5.94848C89.1108 4.61727 90.0137 3.66806 91.3218 3.66806C92.6645 3.66806 93.5212 4.54781 93.5212 5.94848ZM97.449 8.19418H96.4766V10C97.8773 10 99.2548 10 100.632 10V8.37939L99.7294 8.30994V7.38388H100.621L101.628 8.83085V10C102.716 10 103.804 10 104.892 10V8.19418H103.839L102.982 7.05976C104.232 6.46939 104.556 5.64751 104.556 4.68672C104.556 3.22818 103.48 1.89696 101.408 1.89696H96.4766V3.69121H97.449V8.19418ZM101.396 3.72593C102.01 3.72593 102.288 4.17739 102.288 4.6983C102.288 5.21921 101.987 5.67066 101.419 5.67066H99.7294V3.72593H101.396ZM105.701 1.89696V3.71436H106.662V8.19418H105.701V10C107.102 10 108.607 10 109.996 10V8.25206L108.965 8.19418C108.965 7.92794 108.965 7.65012 108.965 7.3723H110.436C112.079 7.36073 113.677 6.53885 113.677 4.64042C113.677 2.73042 112.322 1.89696 110.436 1.89696H105.701ZM108.965 3.87642H110.436C110.956 3.87642 111.385 4.13109 111.385 4.66357C111.385 5.24236 110.956 5.5086 110.436 5.5086H108.965V3.87642ZM123.17 5.94848C123.17 3.2629 121.341 1.71175 118.679 1.71175C116.028 1.71175 114.176 3.29763 114.176 5.94848C114.176 8.66879 116.028 10.1968 118.679 10.1968C121.341 10.1968 123.17 8.66879 123.17 5.94848ZM120.878 5.94848C120.878 7.30285 120.021 8.24048 118.679 8.24048C117.382 8.24048 116.468 7.30285 116.468 5.94848C116.468 4.61727 117.37 3.66806 118.679 3.66806C120.021 3.66806 120.878 4.54781 120.878 5.94848ZM124.806 8.19418H123.833V10C125.234 10 126.612 10 127.989 10V8.37939L127.086 8.30994V7.38388H127.978L128.985 8.83085V10C130.073 10 131.161 10 132.249 10V8.19418H131.196L130.339 7.05976C131.589 6.46939 131.913 5.64751 131.913 4.68672C131.913 3.22818 130.837 1.89696 128.765 1.89696H123.833V3.69121H124.806V8.19418ZM128.753 3.72593C129.367 3.72593 129.644 4.17739 129.644 4.6983C129.644 5.21921 129.343 5.67066 128.776 5.67066H127.086V3.72593H128.753ZM142.735 10V8.19418H141.844L139.031 1.89696C137.665 1.89696 136.102 1.89696 134.748 1.89696V3.69121H135.662L133.648 8.19418H132.745V10H136.808V8.36782L136.044 8.30994L136.299 7.59224H139.17L139.424 8.29836L138.707 8.36782V10H142.735ZM136.982 5.798L137.723 3.84169L138.487 5.798H136.982ZM142.175 1.89696V5.034H144.109L144.178 3.84169H144.919V8.19418H143.958V10H148.183V8.19418H147.234V3.84169H147.963L148.033 5.034H149.966V1.89696H142.175ZM156.249 8.06685H153.933V6.83982H155.878V5.05715H153.933V3.80696H156.098L156.144 4.61727H157.881V1.89696C155.508 1.89696 153.146 1.89696 150.773 1.89696V3.69121H151.665V8.19418H150.773V10C153.193 10 155.624 10 158.031 10V7.25654H156.295L156.249 8.06685ZM79.8366 19.7144V24.1942H78.9684V26H86.2033V22.7704H84.2007L84.1081 24.0553H82.1402V19.7144H83.101V17.897C81.7003 17.897 80.2881 17.897 78.9105 17.897V19.7144H79.8366ZM92.4688 24.0668H90.1537V22.8398H92.0984V21.0571H90.1537V19.807H92.3184L92.3647 20.6173H94.101V17.897C91.728 17.897 89.3665 17.897 86.9935 17.897V19.6912H87.8848V24.1942H86.9935V26C89.4128 26 91.8438 26 94.2515 26V23.2565H92.5151L92.4688 24.0668ZM104.843 26V24.1942H103.951L101.138 17.897C99.7724 17.897 98.2097 17.897 96.8553 17.897V19.6912H97.7698L95.7556 24.1942H94.8527V26H98.9158V24.3678L98.1518 24.3099L98.4065 23.5922H101.277L101.532 24.2984L100.814 24.3678V26H104.843ZM99.0895 21.798L99.8303 19.8417L100.594 21.798H99.0895ZM106.346 24.1942H105.373V26C106.774 26 108.151 26 109.529 26V24.3794L108.626 24.3099V23.3839H109.517L110.524 24.8308V26C111.613 26 112.701 26 113.789 26V24.1942H112.735L111.879 23.0598C113.129 22.4694 113.453 21.6475 113.453 20.6867C113.453 19.2282 112.377 17.897 110.304 17.897H105.373V19.6912H106.346V24.1942ZM110.293 19.7259C110.906 19.7259 111.184 20.1774 111.184 20.6983C111.184 21.2192 110.883 21.6707 110.316 21.6707H108.626V19.7259H110.293ZM117.503 17.897H114.598V19.7144H115.558V24.1942H114.598V26C115.952 26 117.306 26 118.672 26V24.1942H117.885V23.3955L117.85 21.6359L121.219 26H123.175V19.7144H124.113V17.897C122.782 17.897 121.416 17.897 120.073 17.897V19.7144H120.86V20.6751C120.883 20.9877 120.883 21.3581 120.93 22.3305L117.503 17.897ZM129.467 23.5112C129.467 22.863 130.139 22.7356 130.659 22.7356H131.898V23.2797C131.898 23.9279 131.261 24.2868 130.59 24.2868C130.011 24.2868 129.467 24.0668 129.467 23.5112ZM133.993 20.2353C133.993 18.3716 132.488 17.7465 130.856 17.7465C129.421 17.7465 127.488 18.3021 127.488 20.2584C127.488 20.7215 127.708 21.5318 128.379 21.8675C127.661 22.2726 127.21 23.025 127.21 23.6385C127.21 25.5948 128.761 26.1273 130.312 26.1273C131.423 26.1273 132.187 25.7916 132.801 25.1434C133.183 26.1042 134.097 26.1505 134.827 26.0116V24.009C134.271 24.1016 133.959 23.7659 133.959 23.326V22.7009H134.78V21.0803H130.787C130.347 21.0803 129.814 20.8141 129.814 20.2121C129.814 19.2166 131.886 19.1471 131.91 20.2353H133.993ZM139.026 19.6912V24.1942H138.147V26H142.499C145.405 26 146.759 24.1132 146.759 21.8675C146.759 19.6449 145.358 17.897 142.499 17.897H138.147V19.6912H139.026ZM141.307 19.7954H142.499C143.9 19.7954 144.49 20.7446 144.49 21.8443C144.49 22.9556 143.969 24.0668 142.499 24.0668H141.307V19.7954ZM148.409 24.1942H147.437V26C148.838 26 150.215 26 151.593 26V24.3794L150.69 24.3099V23.3839H151.581L152.588 24.8308V26C153.676 26 154.765 26 155.853 26V24.1942H154.799L153.943 23.0598C155.193 22.4694 155.517 21.6475 155.517 20.6867C155.517 19.2282 154.44 17.897 152.368 17.897H147.437V19.6912H148.409V24.1942ZM152.357 19.7259C152.97 19.7259 153.248 20.1774 153.248 20.6983C153.248 21.2192 152.947 21.6707 152.38 21.6707H150.69V19.7259H152.357ZM157.645 19.6912C157.645 21.1961 157.645 22.6778 157.645 24.1942H156.696V26C158.097 26 159.498 26 160.91 26V24.1942H159.949C159.949 22.6778 159.949 21.1961 159.949 19.6912H160.91V17.897C159.498 17.897 158.097 17.897 156.696 17.897V19.6912H157.645ZM165.658 17.897H161.502V19.6912H162.347L165.16 26.0347H167.371L170.184 19.6912H171.029V17.897H166.885V19.6912H167.672L166.26 23.2913L164.871 19.6912H165.658V17.897ZM177.151 24.0668H174.835V22.8398H176.78V21.0571H174.835V19.807H177L177.046 20.6173H178.783V17.897C176.41 17.897 174.048 17.897 171.675 17.897V19.6912H172.567V24.1942H171.675V26C174.095 26 176.525 26 178.933 26V23.2565H177.197L177.151 24.0668Z" fill="#5C585B"/>
</svg>
